<?xml version="1.0" encoding="UTF-8" standalone="no"?>
<!DOCTYPE svg PUBLIC "-//W3C//DTD SVG 1.1//EN" "http://www.w3.org/Graphics/SVG/1.1/DTD/svg11.dtd">
<svg xmlns="http://www.w3.org/2000/svg" version="1.1" viewBox="459.919 364.5637 126.162 125.87263" width="126.162" height="125.87263">
  <defs/>
  <g id="Canvas_1" stroke="none" stroke-opacity="1" fill-opacity="1" fill="none" stroke-dasharray="none">
    <title>Canvas 1</title>
    <g id="Canvas_1: Layer 1">
      <title>Layer 1</title>
      <g id="Graphic_2">
        <path d="M 586.081 427.5 C 586.081 462.2665 557.8362 490.4363 523 490.4363 C 488.1638 490.4363 459.919 462.2665 459.919 427.5 C 459.919 392.75382 488.1638 364.5637 523 364.5637 C 557.8362 364.5637 586.081 392.75382 586.081 427.5 Z M 523 440.18877 C 516.538 440.18877 511.2995 445.4153 511.2995 451.86244 C 511.2995 458.3096 516.538 463.5361 523 463.5361 C 529.462 463.5361 534.7005 458.3096 534.7005 451.86244 C 534.7005 445.4153 529.462 440.18877 523 440.18877 Z M 511.8914 398.228 L 513.7782 432.7415 C 513.8665 434.3565 515.2049 435.6208 516.82595 435.6208 L 529.17405 435.6208 C 530.7951 435.6208 532.1335 434.3565 532.2218 432.7415 L 534.1086 398.228 C 534.204 396.48356 532.8119 395.01674 531.0609 395.01674 L 514.93886 395.01674 C 513.18785 395.01674 511.796 396.48356 511.8914 398.228 Z" fill="#aaa"/>
      </g>
    </g>
  </g>
</svg>
