<?xml version="1.0" encoding="UTF-8" standalone="no"?>
<!DOCTYPE svg PUBLIC "-//W3C//DTD SVG 1.1//EN" "http://www.w3.org/Graphics/SVG/1.1/DTD/svg11.dtd">
<svg xmlns="http://www.w3.org/2000/svg" version="1.1" viewBox="22 20.975 37.94816 37.95" width="37.94816" height="37.95">
  <defs/>
  <g id="Canvas_1" stroke="none" stroke-opacity="1" fill-opacity="1" fill="none" stroke-dasharray="none">
    <title>Canvas 1</title>
    <g id="Canvas_1: Layer 1">
      <title>Layer 1</title>
      <g id="Graphic_2">
        <path d="M 40.975 32.834375 C 37.053994 32.834375 33.859375 36.028994 33.859375 39.95 C 33.859375 43.871006 37.053994 47.065625 40.975 47.065625 C 44.896006 47.065625 48.090625 43.871006 48.090625 39.95 C 48.090625 36.028994 44.896006 32.834375 40.975 32.834375 Z M 59.23844 38.801123 L 52.21917 35.295195 L 54.702227 27.853438 C 55.03577 26.84539 54.07961 25.88923 53.078975 26.230186 L 45.637217 28.713242 L 42.123877 21.686563 C 41.6495 20.737813 40.3005 20.737813 39.826123 21.686563 L 36.320195 28.70583 L 28.871025 26.222774 C 27.86298 25.88923 26.906816 26.84539 27.247773 27.846025 L 29.73083 35.287783 L 22.711563 38.801123 C 21.762812 39.2755 21.762812 40.6245 22.711563 41.098877 L 29.73083 44.604805 L 27.247773 52.053975 C 26.91423 53.06202 27.87039 54.018184 28.871025 53.677227 L 36.312783 51.19417 L 39.81871 58.21344 C 40.293086 59.16219 41.64209 59.16219 42.116465 58.21344 L 45.62239 51.19417 L 53.06415 53.677227 C 54.0722 54.01077 55.02836 53.05461 54.6874 52.053975 L 52.204346 44.612217 L 59.22361 41.10629 C 60.18719 40.6245 60.18719 39.2755 59.23844 38.801123 Z M 47.68296 46.65796 C 43.984316 50.3566 37.965684 50.3566 34.26704 46.65796 C 30.5684 42.959317 30.5684 36.940684 34.26704 33.24204 C 37.965684 29.5434 43.984316 29.5434 47.68296 33.24204 C 51.3816 36.940684 51.3816 42.959317 47.68296 46.65796 Z" fill="#797979"/>
      </g>
    </g>
  </g>
</svg>
